# AST/ASF file generated using VICON BodyLanguage
# -----------------------------------------------
:version 1.10
:name VICON
:units
  mass 1.0
  length 0.45
  angle deg
:documentation
   .ast/.asf automatically generated from VICON data using
   VICON BodyBuilder and BodyLanguage model FoxedUp or BRILLIANT.MOD
:root
   order TX TY TZ RX RY RZ
   axis XYZ
   position 0 0 0  
   orientation 0 0 0 
:bonedata
  begin
     id 1 
     name lhipjoint
     direction 0.693937 -0.600361 0.397515 
     length 2.37164 
     axis 0 0 0  XYZ
  end
  begin
     id 2 
     name lfemur
     direction 0.34202 -0.939693 0  
     length 6.18497  
     axis 0 0 20  XYZ
    dof rx ry rz
    limits (-160.0 20.0)
           (-70.0 70.0)
           (-60.0 70.0)
  end
  begin
     id 3 
     name ltibia
     direction 0.34202 -0.939693 0   
     length 6.91601   
     axis 0 0 20   XYZ
    dof rx
    limits (-10.0 170.0)
  end
  begin
     id 4 
     name lfoot
     direction 0.0978718 -0.2689 0.958182   
     length 1.81453   
     axis -90 7.62852e-016 20   XYZ
    dof rx rz
    limits (-45.0 90.0)
           (-70.0 20.0)
  end
  begin
     id 5 
     name ltoes
     direction 1.53569e-011 -4.21951e-011 1   
     length 0.912052   
     axis -90 7.62852e-016 20   XYZ
    dof rx
    limits (-90.0 20.0)
  end
  begin
     id 6 
     name rhipjoint
     direction -0.643996 -0.637876 0.422354   
     length 2.23216  
     axis 0 0 0  XYZ 
  end
  begin
     id 7 
     name rfemur
     direction -0.34202 -0.939693 0   
     length 6.15404   
     axis 0 0 -20   XYZ
    dof rx ry rz
    limits (-160.0 20.0)
           (-70.0 70.0)
           (-70.0 60.0)
  end
  begin
     id 8 
     name rtibia
     direction -0.34202 -0.939693 0   
     length 6.86744   
     axis 0 0 -20   XYZ
    dof rx
    limits (-10.0 170.0)
 end
 begin
     id 9 
     name rfoot
     direction -0.118701 -0.326127 0.937844   
     length 1.9243  
     axis -90 -7.62852e-016 -20   XYZ
    dof rx rz
    limits (-45.0 90.0)
           (-20.0 70.0)
  end
  begin
     id 10 
     name rtoes
     direction -1.5356e-011 -4.2181e-011 1   
     length 0.958865   
     axis -90 -7.62852e-016 -20   XYZ
    dof rx
    limits (-90.0 20.0)
  end
  begin
     id 11 
     name lowerback
     direction 0.0310826 0.968686 -0.246334   
     length 2.00021   
     axis 0 0 0   XYZ
    dof rx ry rz
    limits (-20.0 45.0)
           (-30.0 30.0)
           (-30.0 30.0)
  end
  begin
     id 12 
     name upperback
     direction -0.0152834 0.999474 -0.0286152   
     length 2.03728   
     axis 0 0 0   XYZ
    dof rx ry rz
    limits (-20.0 45.0)
           (-30.0 30.0)
           (-30.0 30.0)
  end
  begin
     id 13 
     name thorax
     direction -0.0323701 0.996236 0.0804149   
     length 2.16   
     axis 0 0 0   XYZ
    dof rx ry rz
    limits (-20.0 45.0)
           (-30.0 30.0)
           (-30.0 30.0)
  end
  begin
     id 14 
     name lowerneck
     direction 0.0307935 0.982251 0.185027   
     length 1.43558   
     axis 0 0 0   XYZ
    dof rx ry rz
    limits (-20.0 45.0)
           (-30.0 30.0)
           (-30.0 30.0)
  end
  begin
     id 15 
     name upperneck
     direction -0.0927153 0.994775 0.0427454   
     length 1.44603   
     axis 0 0 0   XYZ
    dof rx ry rz
    limits (-20.0 45.0)
           (-30.0 30.0)
           (-30.0 30.0)
  end
  begin
     id 16
     name head
     direction -0.0341265 0.999406 -0.00472033  
     length 1.45931  
     axis 0 0 0   XYZ
    dof rx ry rz
    limits (-20.0 45.0)
           (-30.0 30.0)
           (-30.0 30.0)
  end
  begin
     id 17 
     name lclavicle
     direction 0.820755 0.555306 -0.134151  
     length 2.66075  
     axis 0 0 0   XYZ
    dof ry rz
    limits (-20.0 10.0)
           (0.0 20.0)
  end
  begin
     id 18 
     name lhumerus
     direction 1 -4.48971e-011 5.24853e-027   
     length 5.0546   
     axis -180 -30 -90   XYZ
    dof rx ry rz
    limits (-60.0 90.0)
           (-90.0 90.0)
           (-90.0 90.0)
  end
  begin
     id 19
     name lradius
     direction 1 -4.48971e-011 2.76575e-028   
     length 3.39013   
     axis -180 -30 -90   XYZ
    dof rx
    limits (-10.0 170.0)
  end
  begin
     id 20
     name lwrist
     direction 1 -4.48939e-011 -2.27826e-027   
     length 1.69507   
     axis 2.17013e-015 90 90   XYZ
    dof ry
    limits (-180.0 0.0)
 end
  begin
     id 21 
     name lhand
     direction 1 -4.49009e-011 -4.55652e-027   
     length 0.572425   
     axis 2.90745e-015 90 90   XYZ
    dof rx rz
    limits (-90.0 90.0)
           (-45.0 45.0)
  end
  begin
     id 22 
     name lfingers
     direction 1 -4.48955e-011 -9.11303e-027   
     length 0.461504   
     axis 5.81489e-015 90 90   XYZ
    dof rx
    limits (0.0 90.0)
  end
  begin
     id 23
     name lthumb
     direction 0.707107 -6.34929e-011 0.707107   
     length 0.66263   
     axis -90 45 2.85299e-015   XYZ
    dof rx rz
    limits (-45.0 45.0)
           (-45.0 45.0)
  end
  begin
     id 24 
     name rclavicle
     direction -0.754477 0.632921 -0.173712   
     length 2.73081  
     axis 0 0 0   XYZ 
    dof ry rz
    limits (-10.0 20.0)
           (-20.0 0.0)
  end
  begin
     id 25 
     name rhumerus
     direction -1 -4.48969e-011 5.1496e-027  
     length 5.0701   
     axis -180 30 90   XYZ
    dof rx ry rz
    limits (-90.0 60.0)
           (-90.0 90.0)
           (-90.0 90.0)
  end
  begin
     id 26 
     name rradius
     direction -1 -4.48967e-011 -7.15624e-028   
     length 3.14957   
     axis -180 30 90   XYZ
    dof rx
    limits (-10.0 170.0)
  end
  begin
     id 27 
     name rwrist
     direction -1 -4.48938e-011 -2.27826e-027   
     length 1.57479   
     axis 2.17013e-015 -90 -90   XYZ
    dof ry
    limits (-180.0 0.0)
  end
  begin
     id 28
     name rhand
     direction -1 -4.49008e-011 -4.55652e-027   
     length 0.718191   
     axis 2.90745e-015 -90 -90   XYZ
    dof rx rz
    limits (-90.0 90.0)
           (-45.0 45.0)
  end
  begin
     id 29
     name rfingers
     direction -1 -4.48953e-011 -9.11303e-027   
     length 0.579024   
     axis 5.81489e-015 -90 -90   XYZ
    dof rx
    limits (0.0 90.0)
  end
  begin
     id 30
     name rthumb
     direction -0.707107 -6.34937e-011 0.707107   
     length 0.831366   
     axis -90 -45 -2.85299e-015   XYZ
    dof rx rz
    limits (-45.0 45.0)
           (-45.0 45.0)
  end
:hierarchy
  begin
    root lhipjoint rhipjoint lowerback
    lhipjoint lfemur
    lfemur ltibia
    ltibia lfoot
    lfoot ltoes
    rhipjoint rfemur
    rfemur rtibia
    rtibia rfoot
    rfoot rtoes
    lowerback upperback
    upperback thorax
    thorax lowerneck lclavicle rclavicle
    lowerneck upperneck
    upperneck head
    lclavicle lhumerus
    lhumerus lradius
    lradius lwrist
    lwrist lhand lthumb
    lhand lfingers
    rclavicle rhumerus
    rhumerus rradius
    rradius rwrist
    rwrist rhand rthumb
    rhand rfingers
  end

#!OML:ASF H:\Male1\Project 1\Capture day 1\Session 1\Male1.ASF
:FULLY-SPECIFIED
:DEGREES
71
root 5.39271 15.5012 -0.18378 161.858 -84.415 -165.409
lowerback 8.83004 2.21297 -0.179671
upperback 8.54773 2.5403 -1.4024
thorax 4.00978 1.12842 -1.49728
lowerneck -6.34017 4.17994 7.26841
upperneck 38.5627 2.5428 -0.272978
head 14.5069 1.42845 -1.23386
rclavicle -1.55052e-014 0
rhumerus -27.3336 5.24292 -87.7168
rradius 39.5962
rwrist -18.8809
rhand -15.1967 0.25931
rfingers 7.12502
rthumb 10.975 -29.4338
lclavicle -1.55052e-014 0
lhumerus -21.1141 8.61851 79.2163
lradius 34.5621
lwrist -1.44346
lhand -16.9607 9.7212
lfingers 7.12502
lthumb 9.27327 39.4973
rfemur -4.63501 14.3212 23.4258
rtibia 20.8567
rfoot -19.5855 -25.1316
rtoes -15.659
lfemur -5.44922 -12.4987 -19.5527
ltibia 25.5218
lfoot -19.3954 23.0207
ltoes -3.51224
72
root 5.4424 15.5025 -0.184129 160.869 -84.4284 -164.088
lowerback 9.11527 2.20151 -0.394167
upperback 8.86196 2.48085 -1.28538
thorax 4.1709 1.07234 -1.25915
lowerneck -6.09488 4.13659 7.34572
upperneck 38.2918 2.59665 -0.547865
head 14.3279 1.43043 -1.35307
rclavicle -1.07344e-014 1.03368e-014
rhumerus -26.807 5.74528 -87.4776
rradius 39.8587
rwrist -19.1823
rhand -15.3064 0.464736
rfingers 7.12502
rthumb 10.8692 -29.234
lclavicle -1.07344e-014 1.03368e-014
lhumerus -20.5745 8.25621 79.349
lradius 35.0572
lwrist -1.30351
lhand -16.7169 9.94282
lfingers 7.12502
lthumb 9.50846 39.7083
rfemur -5.46617 14.0866 23.401
rtibia 21.2415
rfoot -19.4153 -24.9297
rtoes -15.6044
lfemur -6.22463 -12.1426 -19.2074
ltibia 25.7535
lfoot -19.1467 22.6237
ltoes -3.45913
73
root 5.5046 15.5032 -0.191066 158.685 -84.3187 -161.472
lowerback 9.68057 2.24981 -0.588515
upperback 8.96775 2.50248 -1.07074
thorax 3.9546 1.05882 -0.947175
lowerneck -5.92323 4.0995 7.25639
upperneck 38.2548 2.58154 -0.605478
head 14.2677 1.40376 -1.36459
rclavicle -8.94531e-015 2.8625e-014
rhumerus -26.5425 6.04495 -87.1739
rradius 40.1838
rwrist -19.5383
rhand -15.3527 0.713866
rfingers 7.12502
rthumb 10.8246 -28.9872
lclavicle -8.94531e-015 2.8625e-014
lhumerus -20.2827 7.84144 79.479
lradius 35.4683
lwrist -1.503
lhand -16.2697 10.5535
lfingers 7.12502
lthumb 9.93995 40.2988
rfemur -6.47981 14.1895 23.5664
rtibia 21.6438
rfoot -19.6612 -24.7261
rtoes -13.6277
lfemur -7.2076 -11.6464 -18.6007
ltibia 26.0181
lfoot -18.8309 22.1402
ltoes -3.00197
74
root 5.53473 15.5037 -0.185243 163.979 -84.6609 -166.547
lowerback 9.84067 2.22581 -1.36108
upperback 9.35869 2.38948 -1.14214
thorax 4.25439 0.945835 -0.584814
lowerneck -6.12388 4.11867 7.11873
upperneck 38.335 2.62003 -0.625705
head 14.3479 1.40181 -1.34144
rclavicle 2.22639e-014 -3.57812e-015
rhumerus -26.0789 6.36327 -86.9163
rradius 40.5443
rwrist -19.7348
rhand -15.4148 0.653976
rfingers 7.12502
rthumb 10.7646 -29.0502
lclavicle 2.22639e-014 -3.57812e-015
lhumerus -19.6522 7.52073 79.5628
lradius 35.5206
lwrist -1.91226
lhand -16.2725 10.6703
lfingers 7.12502
lthumb 9.93727 40.4157
rfemur -7.10622 13.5357 22.762
rtibia 22.0726
rfoot -19.5602 -24.2281
rtoes -14.0042
lfemur -7.77077 -11.3884 -19.1496
ltibia 26.2688
lfoot -18.2786 22.0328
ltoes -4.92861
75
root 5.57031 15.5024 -0.182854 165.975 -84.7629 -168.312
lowerback 10.3689 2.24266 -1.61603
upperback 9.5347 2.3583 -1.23347
thorax 4.14858 0.908123 -0.55097
lowerneck -6.12116 4.10421 7.10599
upperneck 38.363 2.58387 -0.611764
head 14.3585 1.38651 -1.33865
rclavicle -1.15295e-014 -1.35174e-014
rhumerus -25.9618 6.6283 -86.8208
rradius 40.9252
rwrist -19.9159
rhand -15.4542 0.556256
rfingers 7.12502
rthumb 10.7266 -29.1499
lclavicle -1.15295e-014 -1.35174e-014
lhumerus -19.2077 6.7296 79.5065
lradius 35.484
lwrist -1.86052
lhand -16.5082 10.6462
lfingers 7.12502
lthumb 9.70986 40.4024
rfemur -7.72507 13.0092 22.4397
rtibia 22.3796
rfoot -18.9827 -24.0695
rtoes -15.5911
lfemur -8.45616 -10.8932 -19.2229
ltibia 26.6956
lfoot -18.1888 21.5628
ltoes -4.65279
76
root 5.6113 15.4999 -0.181234 165.873 -84.8283 -167.922
lowerback 10.9491 2.2339 -1.67302
upperback 9.66326 2.30436 -1.27653
thorax 3.97071 0.870465 -0.577292
lowerneck -5.94094 4.11928 7.17892
upperneck 38.1397 2.65156 -0.697434
head 14.2178 1.41756 -1.37627
rclavicle 1.61016e-014 -1.66979e-014
rhumerus -25.8301 6.95886 -86.7462
rradius 41.2447
rwrist -20.1126
rhand -15.4599 0.723508
rfingers 7.12502
rthumb 10.7212 -28.9829
lclavicle 1.61016e-014 -1.66979e-014
lhumerus -18.841 5.91115 79.4054
lradius 35.4955
lwrist -1.65699
lhand -16.8552 10.4579
lfingers 7.12502
lthumb 9.37511 40.2294
rfemur -8.34391 12.5629 22.3227
rtibia 22.5413
rfoot -18.6563 -23.8003
rtoes -15.6155
lfemur -9.32182 -10.2801 -19.0431
ltibia 27.296
lfoot -17.7926 21.1248
ltoes -6.43635
77
root 5.66337 15.4963 -0.182484 159.264 -84.6422 -160.913
lowerback 11.6268 2.19125 -1.21654
upperback 9.71462 2.24486 -1.08319
thorax 3.66811 0.854094 -0.64631
lowerneck -5.87534 4.19788 7.18104
upperneck 38.0439 2.80936 -0.787341
head 14.1666 1.47717 -1.39106
rclavicle 1.51076e-014 -9.54166e-015
rhumerus -25.6787 7.30151 -86.6101
rradius 41.5794
rwrist -20.1688
rhand -15.4481 0.803544
rfingers 7.12502
rthumb 10.7325 -28.9023
lclavicle 1.51076e-014 -9.54166e-015
lhumerus -18.4645 5.38615 79.3067
lradius 35.3674
lwrist -1.875
lhand -17.3301 9.67778
lfingers 7.12502
lthumb 8.91681 39.4694
rfemur -9.06464 12.4816 22.9197
rtibia 22.6113
rfoot -18.5294 -23.6329
rtoes -14.8435
lfemur -10.4847 -9.58313 -18.0788
ltibia 28.1192
lfoot -17.712 20.4462
ltoes -6.94006
78
root 5.7173 15.4879 -0.187065 150.562 -84.0951 -151.934
lowerback 12.4203 2.21251 -0.449557
upperback 9.81484 2.29441 -0.767255
thorax 3.36686 0.900516 -0.773318
lowerneck -5.88687 4.22289 7.03257
upperneck 38.0668 2.83815 -0.705697
head 14.175 1.48041 -1.32725
rclavicle 5.36719e-015 1.66979e-014
rhumerus -25.492 7.55187 -86.3799
rradius 41.9713
rwrist -20.138
rhand -15.2884 0.648687
rfingers 7.12502
rthumb 10.8866 -29.0491
lclavicle 5.36719e-015 1.66979e-014
lhumerus -17.9491 4.84372 79.249
lradius 35.1047
lwrist -2.06694
lhand -17.6139 9.01296
lfingers 7.12502
lthumb 8.64292 38.816
rfemur -9.64602 12.5812 23.9946
rtibia 22.6465
rfoot -18.0395 -23.7259
rtoes -15.702
lfemur -11.5783 -8.80511 -16.7164
ltibia 29.0695
lfoot -17.7409 19.7586
ltoes -7.3038
79
root 5.76505 15.4795 -0.182618 149.535 -84.194 -150.615
lowerback 12.9361 2.15285 -0.437628
upperback 10.0324 2.17957 -0.74713
thorax 3.3232 0.830269 -0.761464
lowerneck -5.76254 4.23311 6.88586
upperneck 37.815 2.90062 -0.670707
head 14.0248 1.49516 -1.27669
rclavicle 6.16232e-015 3.18055e-015
rhumerus -25.2805 7.84977 -86.1136
rradius 42.6981
rwrist -20.0863
rhand -15.0044 0.55539
rfingers 7.12502
rthumb 11.1605 -29.1278
lclavicle 6.16232e-015 3.18055e-015
lhumerus -17.2728 4.2722 79.136
lradius 34.8316
lwrist -1.93167
lhand -17.6617 8.76661
lfingers 7.12502
lthumb 8.59685 38.5716
rfemur -10.2604 11.9725 23.9367
rtibia 22.7494
rfoot -17.4119 -23.4488
rtoes -16.8919
lfemur -12.6785 -8.25515 -16.5084
ltibia 29.9945
lfoot -17.7271 19.064
ltoes -7.19652
80
root 5.8091 15.4682 -0.181204 148.973 -84.1798 -149.846
lowerback 13.3224 2.09519 -0.387886
upperback 10.3656 2.06395 -0.805253
thorax 3.47976 0.759967 -0.846557
lowerneck -5.59392 4.29858 6.90954
upperneck 37.4015 3.07473 -0.760967
head 13.8044 1.56844 -1.29113
rclavicle -3.57812e-015 3.26007e-014
rhumerus -25.024 8.25407 -85.971
rradius 43.6587
rwrist -20.0837
rhand -14.8991 0.594041
rfingers 7.12502
rthumb 11.262 -29.0836
lclavicle -3.57812e-015 3.26007e-014
lhumerus -16.5908 3.7357 78.8346
lradius 34.7438
lwrist -1.82741
lhand -17.609 8.79699
lfingers 7.12502
lthumb 8.64768 38.5999
rfemur -10.8856 11.5681 23.9119
rtibia 23.0552
rfoot -17.2231 -23.0415
rtoes -16.0242
lfemur -13.5977 -7.64055 -16.307
ltibia 30.8031
lfoot -17.7146 18.3836
ltoes -6.46688
